# xmcd
# 
# Track frame offsets:
#     150
#     14783
#     28515
#     46454
#     57835
#     69042
#     82494
#     91991
#     111374
#     123513
#     137575
#     155990
# 
# Disc length: 2247
# 
# Revision: 4
# Processed by: cddbd v1.5.2PL0 Copyright (c) Steve Scherf et al.
# Submitted via: fre:ac v1.0.27
# 
DISCID=aa08c50c
DTITLE=Los Super Seven - Heard It On The X
DYEAR=2005
DGENRE=Latin Rock
TTITLE0=The El Burro Song (ft. Raul Malo)
TTITLE1=Cupido (ft. Freddy Fender and Rick Trevino)
TTITLE2=Talk To Me (ft. Delbert McClinton)
TTITLE3=I'm Not That Kat (Anymore) (ft. John Hiatt)
TTITLE4=My Window Faces The South (ft. Lyle Lovett)
TTITLE5=Let Her Dance (ft. Joe Ely)
TTITLE6=Learning The Game (ft. Rodney Crowell)
TTITLE7=The Song Of Everything (ft. Raul Malo)
TTITLE8=Ojitos Traidores (ft. Rick Trevino)
TTITLE9=I Live The Life I Love (ft. Delbert McClinton)
TTITLE10=Heard It On The X (ft. Ruben Ramos)
TTITLE11=See That My Grave Is Kept Clean (ft. Clarence "Gatemouth" Brown)
EXTD=YEAR: 2005
EXTT0=
EXTT1=
EXTT2=
EXTT3=
EXTT4=
EXTT5=
EXTT6=
EXTT7=
EXTT8=
EXTT9=
EXTT10=
EXTT11=
PLAYORDER=
